{
    "asset" : {
        "generator" : "Khronos glTF Blender I/O v3.4.50",
        "version" : "2.0"
    },
    "extensionsUsed" : [
        "KHR_materials_specular",
        "KHR_materials_ior"
    ],
    "scene" : 0,
    "scenes" : [
        {
            "name" : "Scene",
            "nodes" : [
                27
            ]
        }
    ],
    "nodes" : [
        {
            "name" : "L_Wing2",
            "rotation" : [
                1.244840276866388e-15,
                -5.505714157152952e-21,
                -1.244840276866388e-15,
                1
            ],
            "translation" : [
                0.28258803486824036,
                0.39964205026626587,
                0.2825879752635956
            ]
        },
        {
            "children" : [
                0
            ],
            "name" : "L_Wing1",
            "rotation" : [
                3.702786794169841e-16,
                -0.3826834559440613,
                -4.215706271890702e-15,
                0.9238795042037964
            ],
            "translation" : [
                0.43677249550819397,
                0.17814432084560394,
                0.11931618303060532
            ]
        },
        {
            "name" : "PT_L_hand",
            "rotation" : [
                1.5322549984375655e-07,
                1.664879960117105e-06,
                2.551020917944402e-13,
                1
            ],
            "translation" : [
                0.42702221870422363,
                -0.007785240653902292,
                0.1351458877325058
            ]
        },
        {
            "children" : [
                2
            ],
            "name" : "L_Wing4",
            "rotation" : [
                -7.66133325669216e-08,
                -6.532445695484057e-10,
                5.004185949083681e-17,
                1
            ],
            "translation" : [
                0.5274993181228638,
                -7.163092163864349e-07,
                -7.928420586722495e-07
            ]
        },
        {
            "children" : [
                3
            ],
            "name" : "L_Wing3",
            "rotation" : [
                -5.024318651690495e-15,
                -0.7071080803871155,
                5.023998896752906e-15,
                0.7071055769920349
            ],
            "translation" : [
                0.4367710053920746,
                0.0562872514128685,
                0.17583398520946503
            ]
        },
        {
            "name" : "L_Wing6",
            "rotation" : [
                -1.5322532931349997e-07,
                -1.4230153513872246e-19,
                1.5322532931349997e-07,
                1
            ],
            "scale" : [
                1.0000001192092896,
                1,
                1.0000001192092896
            ],
            "translation" : [
                0.18839457631111145,
                -0.2664266526699066,
                -0.1883912980556488
            ]
        },
        {
            "children" : [
                5
            ],
            "name" : "L_Wing5",
            "rotation" : [
                2.831239385159279e-07,
                -0.9238799214363098,
                1.1727343007805757e-07,
                0.3826824426651001
            ],
            "translation" : [
                0.436771035194397,
                -0.10483604669570923,
                0.11931683868169785
            ]
        },
        {
            "name" : "PT_head",
            "rotation" : [
                5.417331649937296e-08,
                -0.7071070671081543,
                5.417330584123192e-08,
                0.7071065902709961
            ],
            "translation" : [
                -0.10561872273683548,
                0.4188919961452484,
                3.901255240634782e-06
            ]
        },
        {
            "name" : "PT_mouth",
            "rotation" : [
                -2.1669367811227858e-07,
                -0.7071070671081543,
                -2.1669353600373142e-07,
                0.7071065902709961
            ],
            "translation" : [
                -0.26865795254707336,
                -0.07028485089540482,
                3.5003438370040385e-06
            ]
        },
        {
            "children" : [
                7,
                8
            ],
            "name" : "Head",
            "rotation" : [
                -1.461272509245548e-13,
                7.74860438923497e-07,
                3.552549989683444e-15,
                1
            ],
            "translation" : [
                1.290254840569105e-05,
                0.07861222326755524,
                -1.6720065332265222e-07
            ]
        },
        {
            "children" : [
                9
            ],
            "name" : "PG_Neck",
            "rotation" : [
                2.922540410631863e-13,
                8.526510118615771e-14,
                3.552788641216333e-15,
                1
            ],
            "translation" : [
                -5.355969278753037e-06,
                0.2170814722776413,
                -4.6179997070794343e-07
            ]
        },
        {
            "name" : "PT_center",
            "rotation" : [
                1.0835177021014872e-13,
                0.7071071863174438,
                1.0835193284047459e-13,
                0.707106351852417
            ],
            "translation" : [
                -0.00013118483184371144,
                0.04862481728196144,
                -1.0372389169788221e-07
            ]
        },
        {
            "name" : "R_Wing2",
            "rotation" : [
                3.0211939398930862e-15,
                -5.505714157152952e-21,
                -5.315197389074147e-16,
                1
            ],
            "scale" : [
                0.9999999403953552,
                1,
                0.9999999403953552
            ],
            "translation" : [
                0.28258979320526123,
                0.39964044094085693,
                -0.28258779644966125
            ]
        },
        {
            "children" : [
                12
            ],
            "name" : "R_Wing1",
            "rotation" : [
                -3.475148330721583e-15,
                0.3826829493045807,
                3.70196146644186e-16,
                0.9238797426223755
            ],
            "translation" : [
                0.436772882938385,
                0.17814378440380096,
                -0.11931531876325607
            ]
        },
        {
            "name" : "PT_R_hand",
            "rotation" : [
                -5.412793694162255e-13,
                1,
                -1.5322549984375655e-07,
                3.5325672342878534e-06
            ],
            "translation" : [
                0.42702412605285645,
                -0.007625380996614695,
                -0.13514797389507294
            ]
        },
        {
            "children" : [
                14
            ],
            "name" : "R_Wing4",
            "rotation" : [
                7.661265755132263e-08,
                -2.7818032322102226e-08,
                -2.131212822322967e-15,
                1
            ],
            "translation" : [
                0.5274993777275085,
                -2.981285888381535e-06,
                2.9909595014032675e-06
            ]
        },
        {
            "children" : [
                15
            ],
            "name" : "R_Wing3",
            "rotation" : [
                5.024308910811601e-15,
                0.7071080803871155,
                5.024661700034133e-15,
                0.7071055769920349
            ],
            "translation" : [
                0.4367719292640686,
                0.056286416947841644,
                -0.17583349347114563
            ]
        },
        {
            "name" : "R_Wing6",
            "rotation" : [
                1.532252724700811e-07,
                -2.980232594040899e-08,
                1.5322524404837168e-07,
                1
            ],
            "scale" : [
                0.9999999403953552,
                0.9999999403953552,
                0.9999999403953552
            ],
            "translation" : [
                0.18839296698570251,
                -0.2664277255535126,
                0.18839135766029358
            ]
        },
        {
            "children" : [
                17
            ],
            "name" : "R_Wing5",
            "rotation" : [
                -2.831235690337053e-07,
                0.9238799214363098,
                1.1727330928579249e-07,
                0.38268256187438965
            ],
            "translation" : [
                0.4367715120315552,
                -0.10483658313751221,
                -0.11931479722261429
            ]
        },
        {
            "children" : [
                1,
                4,
                6,
                10,
                11,
                13,
                16,
                18
            ],
            "name" : "Spine",
            "rotation" : [
                -3.791863741400836e-13,
                -2.86102294921875e-06,
                7.176542027309551e-08,
                1
            ],
            "translation" : [
                4.920568130728498e-07,
                0.1305055022239685,
                -4.6426569610957813e-07
            ]
        },
        {
            "name" : "Tail",
            "rotation" : [
                -7.176500815830877e-08,
                1,
                -4.4220893223242963e-13,
                1.982846470127697e-06
            ],
            "translation" : [
                -4.1188945942849386e-07,
                -0.11915075033903122,
                4.238717963289673e-07
            ]
        },
        {
            "children" : [
                19,
                20
            ],
            "name" : "Pelvis",
            "rotation" : [
                -5.417316373268477e-08,
                0.7071089744567871,
                -5.417351189862529e-08,
                0.7071045637130737
            ],
            "scale" : [
                1,
                0.9999999403953552,
                1
            ],
            "translation" : [
                0,
                0.5720481872558594,
                0.07384587079286575
            ]
        },
        {
            "children" : [
                21
            ],
            "name" : "PG_root",
            "rotation" : [
                1.0658141036401503e-14,
                0,
                0,
                1
            ],
            "translation" : [
                0,
                0,
                -8.881784197001252e-16
            ]
        },
        {
            "name" : "urugamosu_00",
            "rotation" : [
                1.0658141036401503e-14,
                0,
                0,
                1
            ],
            "translation" : [
                0,
                0,
                -8.881784197001252e-16
            ]
        },
        {
            "children" : [
                22,
                23
            ],
            "name" : "root",
            "rotation" : [
                1.0033481601112726e-07,
                0,
                0,
                1
            ],
            "translation" : [
                0,
                -0.6699999570846558,
                0
            ]
        },
        {
            "mesh" : 0,
            "name" : "urugamosu_00_0_0_node",
            "skin" : 0
        },
        {
            "mesh" : 1,
            "name" : "urugamosu_00_1_0_node",
            "skin" : 0
        },
        {
            "children" : [
                25,
                26,
                24
            ],
            "name" : "Armature"
        }
    ],
    "materials" : [
        {
            "doubleSided" : true,
            "extensions" : {
                "KHR_materials_specular" : {
                    "specularColorFactor" : [
                        0,
                        0,
                        0
                    ]
                },
                "KHR_materials_ior" : {
                    "ior" : 1.4500000476837158
                }
            },
            "name" : "body_mat",
            "pbrMetallicRoughness" : {
                "baseColorTexture" : {
                    "index" : 0
                },
                "metallicFactor" : 0,
                "roughnessFactor" : 0.5
            }
        },
        {
            "doubleSided" : true,
            "extensions" : {
                "KHR_materials_specular" : {
                    "specularColorFactor" : [
                        0,
                        0,
                        0
                    ]
                },
                "KHR_materials_ior" : {
                    "ior" : 1.4500000476837158
                }
            },
            "name" : "eye_mat",
            "pbrMetallicRoughness" : {
                "baseColorTexture" : {
                    "index" : 1
                },
                "metallicFactor" : 0,
                "roughnessFactor" : 0.5
            }
        }
    ],
    "meshes" : [
        {
            "name" : "urugamosu_00_0_0",
            "primitives" : [
                {
                    "attributes" : {
                        "POSITION" : 0,
                        "TEXCOORD_0" : 1,
                        "NORMAL" : 2,
                        "JOINTS_0" : 3,
                        "WEIGHTS_0" : 4
                    },
                    "indices" : 5,
                    "material" : 0
                }
            ]
        },
        {
            "name" : "urugamosu_00_1_0",
            "primitives" : [
                {
                    "attributes" : {
                        "POSITION" : 7,
                        "TEXCOORD_0" : 8,
                        "NORMAL" : 9,
                        "JOINTS_0" : 10,
                        "WEIGHTS_0" : 11
                    },
                    "indices" : 12,
                    "material" : 1
                }
            ]
        }
    ],
    "textures" : [
        {
            "sampler" : 0,
            "source" : 0
        },
        {
            "sampler" : 0,
            "source" : 1
        }
    ],
    "images" : [
        {
            "bufferView" : 6,
            "mimeType" : "image/png",
            "name" : "urugamosu_bd_00"
        },
        {
            "bufferView" : 14,
            "mimeType" : "image/png",
            "name" : "urugamosu_ey_00"
        }
    ],
    "skins" : [
        {
            "inverseBindMatrices" : 6,
            "joints" : [
                24,
                22,
                21,
                19,
                1,
                0,
                4,
                3,
                2,
                6,
                5,
                10,
                9,
                7,
                8,
                11,
                13,
                12,
                16,
                15,
                14,
                18,
                17,
                20,
                23
            ],
            "name" : "Armature"
        }
    ],
    "accessors" : [
        {
            "bufferView" : 0,
            "componentType" : 5126,
            "count" : 870,
            "max" : [
                1.4199026823043823,
                1.0297788381576538,
                0.8125500679016113
            ],
            "min" : [
                -1.4199026823043823,
                -0.6648698449134827,
                -0.5657815933227539
            ],
            "type" : "VEC3"
        },
        {
            "bufferView" : 1,
            "componentType" : 5126,
            "count" : 870,
            "type" : "VEC2"
        },
        {
            "bufferView" : 2,
            "componentType" : 5126,
            "count" : 870,
            "type" : "VEC3"
        },
        {
            "bufferView" : 3,
            "componentType" : 5121,
            "count" : 870,
            "type" : "VEC4"
        },
        {
            "bufferView" : 4,
            "componentType" : 5126,
            "count" : 870,
            "type" : "VEC4"
        },
        {
            "bufferView" : 5,
            "componentType" : 5123,
            "count" : 2790,
            "type" : "SCALAR"
        },
        {
            "bufferView" : 7,
            "componentType" : 5126,
            "count" : 25,
            "type" : "MAT4"
        },
        {
            "bufferView" : 8,
            "componentType" : 5126,
            "count" : 18,
            "max" : [
                0.1455594301223755,
                0.5037251710891724,
                0.3577415943145752
            ],
            "min" : [
                -0.14556244015693665,
                0.38888707756996155,
                0.31252095103263855
            ],
            "type" : "VEC3"
        },
        {
            "bufferView" : 9,
            "componentType" : 5126,
            "count" : 18,
            "type" : "VEC2"
        },
        {
            "bufferView" : 10,
            "componentType" : 5126,
            "count" : 18,
            "type" : "VEC3"
        },
        {
            "bufferView" : 11,
            "componentType" : 5121,
            "count" : 18,
            "type" : "VEC4"
        },
        {
            "bufferView" : 12,
            "componentType" : 5126,
            "count" : 18,
            "type" : "VEC4"
        },
        {
            "bufferView" : 13,
            "componentType" : 5123,
            "count" : 48,
            "type" : "SCALAR"
        }
    ],
    "bufferViews" : [
        {
            "buffer" : 0,
            "byteLength" : 10440,
            "byteOffset" : 0,
            "target" : 34962
        },
        {
            "buffer" : 0,
            "byteLength" : 6960,
            "byteOffset" : 10440,
            "target" : 34962
        },
        {
            "buffer" : 0,
            "byteLength" : 10440,
            "byteOffset" : 17400,
            "target" : 34962
        },
        {
            "buffer" : 0,
            "byteLength" : 3480,
            "byteOffset" : 27840,
            "target" : 34962
        },
        {
            "buffer" : 0,
            "byteLength" : 13920,
            "byteOffset" : 31320,
            "target" : 34962
        },
        {
            "buffer" : 0,
            "byteLength" : 5580,
            "byteOffset" : 45240,
            "target" : 34963
        },
        {
            "buffer" : 0,
            "byteLength" : 16296,
            "byteOffset" : 50820
        },
        {
            "buffer" : 0,
            "byteLength" : 1600,
            "byteOffset" : 67116
        },
        {
            "buffer" : 0,
            "byteLength" : 216,
            "byteOffset" : 68716,
            "target" : 34962
        },
        {
            "buffer" : 0,
            "byteLength" : 144,
            "byteOffset" : 68932,
            "target" : 34962
        },
        {
            "buffer" : 0,
            "byteLength" : 216,
            "byteOffset" : 69076,
            "target" : 34962
        },
        {
            "buffer" : 0,
            "byteLength" : 72,
            "byteOffset" : 69292,
            "target" : 34962
        },
        {
            "buffer" : 0,
            "byteLength" : 288,
            "byteOffset" : 69364,
            "target" : 34962
        },
        {
            "buffer" : 0,
            "byteLength" : 96,
            "byteOffset" : 69652,
            "target" : 34963
        },
        {
            "buffer" : 0,
            "byteLength" : 2255,
            "byteOffset" : 69748
        }
    ],
    "samplers" : [
        {
            "magFilter" : 9729,
            "minFilter" : 9987
        }
    ],
    "buffers" : [
        {
            "byteLength" : 72004,
            "uri" : "data:application/octet-stream;base64,"
        }
    ]
}
